<svg class="main-svg" xmlns="http://www.w3.org/2000/svg" xmlns:xlink="http://www.w3.org/1999/xlink" width="700" height="500" style="" viewBox="0 0 700 500"><rect x="0" y="0" width="700" height="500" style="fill: rgb(255, 255, 255); fill-opacity: 1;"/><defs id="defs-3fe342"><g class="clips"><clipPath id="clip3fe342xyplot" class="plotclip"><rect width="501" height="360"/></clipPath><clipPath class="axesclip" id="clip3fe342x"><rect x="110" y="0" width="501" height="500"/></clipPath><clipPath class="axesclip" id="clip3fe342y"><rect x="0" y="60" width="700" height="360"/></clipPath><clipPath class="axesclip" id="clip3fe342xy"><rect x="110" y="60" width="501" height="360"/></clipPath></g><g class="gradients"/><g class="patterns"/></defs><g class="bglayer"><rect class="bg" x="110" y="60" width="501" height="360" style="fill: rgb(229, 236, 246); fill-opacity: 1; stroke-width: 0;"/></g><g class="layer-below"><g class="imagelayer"/><g class="shapelayer"/></g><g class="cartesianlayer"><g class="subplot xy"><g class="layer-subplot"><g class="shapelayer"/><g class="imagelayer"/></g><g class="minor-gridlayer"><g class="x"/><g class="y"/></g><g class="gridlayer"><g class="x"><path class="xgrid crisp" transform="translate(184.12,0)" d="M0,60v360" style="stroke: rgb(255, 255, 255); stroke-opacity: 1; stroke-width: 1px;"/><path class="xgrid crisp" transform="translate(362.53999999999996,0)" d="M0,60v360" style="stroke: rgb(255, 255, 255); stroke-opacity: 1; stroke-width: 1px;"/><path class="xgrid crisp" transform="translate(466.9,0)" d="M0,60v360" style="stroke: rgb(255, 255, 255); stroke-opacity: 1; stroke-width: 1px;"/><path class="xgrid crisp" transform="translate(540.95,0)" d="M0,60v360" style="stroke: rgb(255, 255, 255); stroke-opacity: 1; stroke-width: 1px;"/><path class="xgrid crisp" transform="translate(598.38,0)" d="M0,60v360" style="stroke: rgb(255, 255, 255); stroke-opacity: 1; stroke-width: 1px;"/></g><g class="y"><path class="ygrid crisp" transform="translate(0,374.25)" d="M110,0h501" style="stroke: rgb(255, 255, 255); stroke-opacity: 1; stroke-width: 1px;"/><path class="ygrid crisp" transform="translate(0,284.75)" d="M110,0h501" style="stroke: rgb(255, 255, 255); stroke-opacity: 1; stroke-width: 1px;"/><path class="ygrid crisp" transform="translate(0,195.25)" d="M110,0h501" style="stroke: rgb(255, 255, 255); stroke-opacity: 1; stroke-width: 1px;"/><path class="ygrid crisp" transform="translate(0,105.75)" d="M110,0h501" style="stroke: rgb(255, 255, 255); stroke-opacity: 1; stroke-width: 1px;"/></g></g><g class="zerolinelayer"/><path class="xlines-below"/><path class="ylines-below"/><g class="overlines-below"/><g class="xaxislayer-below"/><g class="yaxislayer-below"/><g class="overaxes-below"/><g class="plot" transform="translate(110,60)" clip-path="url(#clip3fe342xyplot)"><g class="boxlayer mlayer"><g class="trace boxes" style="opacity: 1;"><path class="box" d="M126.32,342.44V336.18M110.1,342.44V336.18H127.32V342.44ZM110.1,339.31H110.1M127.32,339.31H127.32M110.1,340.88V337.74M127.32,340.88V337.74" style="vector-effect: none; stroke-width: 0.5px; stroke: rgb(99, 110, 250); stroke-opacity: 1; fill: rgb(99, 110, 250); fill-opacity: 0.5;"/><path class="box" d="M209.4,252.94V246.68M208.4,252.94V246.68H213.4V252.94ZM208.4,249.81H203.3M213.4,249.81H213.4M203.3,251.38V248.24M213.4,251.38V248.24" style="vector-effect: none; stroke-width: 0.5px; stroke: rgb(99, 110, 250); stroke-opacity: 1; fill: rgb(99, 110, 250); fill-opacity: 0.5;"/><path class="box" d="M255.64,163.44V157.18M254.51,163.44V157.18H256.73V163.44ZM254.51,160.31H254.46M256.73,160.31H256.76M254.46,161.88V158.74M256.76,161.88V158.74" style="vector-effect: none; stroke-width: 0.5px; stroke: rgb(99, 110, 250); stroke-opacity: 1; fill: rgb(99, 110, 250); fill-opacity: 0.5;"/><path class="box" d="M263.12,73.94V67.68M262.67,73.94V67.68H263.12V73.94ZM262.67,70.81H262.67M263.12,70.81H263.12M262.67,72.38V69.24M263.12,72.38V69.24" style="vector-effect: none; stroke-width: 0.5px; stroke: rgb(99, 110, 250); stroke-opacity: 1; fill: rgb(99, 110, 250); fill-opacity: 0.5;"/><g class="points"/><g class="points"/><g class="points"/><g class="points"/></g><g class="trace boxes" style="opacity: 1;"><path class="box" d="M127.32,329.91V323.65M126.78,329.91V323.65H127.85V329.91ZM126.78,326.78H126.78M127.85,326.78H127.85M126.78,328.35V325.21M127.85,328.35V325.21" style="vector-effect: none; stroke-width: 0.5px; stroke: rgb(239, 85, 59); stroke-opacity: 1; fill: rgb(239, 85, 59); fill-opacity: 0.5;"/><path class="box" d="M140.1,240.41V234.15M139.1,240.41V234.15H145.62V240.41ZM139.1,237.28H132.4M145.62,237.28H146.03M132.4,238.85V235.71M146.03,238.85V235.71" style="vector-effect: none; stroke-width: 0.5px; stroke: rgb(239, 85, 59); stroke-opacity: 1; fill: rgb(239, 85, 59); fill-opacity: 0.5;"/><path class="box" d="M241.36,150.91V144.65M240.59,150.91V144.65H241.39V150.91ZM240.59,147.78H240.57M241.39,147.78H242.18M240.57,149.35V146.21M242.18,149.35V146.21" style="vector-effect: none; stroke-width: 0.5px; stroke: rgb(239, 85, 59); stroke-opacity: 1; fill: rgb(239, 85, 59); fill-opacity: 0.5;"/><path class="box" d="M245.01,61.41V55.15M244.91,61.41V55.15H245.28V61.41ZM244.91,58.28H244.91M245.28,58.28H245.31M244.91,59.85V56.71M245.31,59.85V56.71" style="vector-effect: none; stroke-width: 0.5px; stroke: rgb(239, 85, 59); stroke-opacity: 1; fill: rgb(239, 85, 59); fill-opacity: 0.5;"/><g class="points"><path class="point" transform="translate(143.46,326.78)" d="M1,1L-1,-1M1,-1L-1,1" style="opacity: 1; stroke-width: 0.5px; fill: rgb(239, 85, 59); fill-opacity: 1; stroke: rgb(68, 68, 68); stroke-opacity: 1;"/><path class="point" transform="translate(144.47,326.78)" d="M1,1L-1,-1M1,-1L-1,1" style="opacity: 1; stroke-width: 0.5px; fill: rgb(239, 85, 59); fill-opacity: 1; stroke: rgb(68, 68, 68); stroke-opacity: 1;"/></g><g class="points"/><g class="points"/><g class="points"><path class="point" transform="translate(243.86,58.28)" d="M1,1L-1,-1M1,-1L-1,1" style="opacity: 1; stroke-width: 0.5px; fill: rgb(239, 85, 59); fill-opacity: 1; stroke: rgb(68, 68, 68); stroke-opacity: 1;"/><path class="point" transform="translate(244.11,58.28)" d="M1,1L-1,-1M1,-1L-1,1" style="opacity: 1; stroke-width: 0.5px; fill: rgb(239, 85, 59); fill-opacity: 1; stroke: rgb(68, 68, 68); stroke-opacity: 1;"/></g></g><g class="trace boxes" style="opacity: 1;"><path class="box" d="M214.46,317.38V311.12M214.46,317.38V311.12H214.46V317.38ZM214.46,314.25H214.46M214.46,314.25H214.46M214.46,315.82V312.68M214.46,315.82V312.68" style="vector-effect: none; stroke-width: 0.5px; stroke: rgb(0, 204, 150); stroke-opacity: 1; fill: rgb(0, 204, 150); fill-opacity: 0.5;"/><path class="box" d="M399.29,227.88V221.62M399.29,227.88V221.62H399.29V227.88ZM399.29,224.75H399.29M399.29,224.75H399.29M399.29,226.32V223.18M399.29,226.32V223.18" style="vector-effect: none; stroke-width: 0.5px; stroke: rgb(0, 204, 150); stroke-opacity: 1; fill: rgb(0, 204, 150); fill-opacity: 0.5;"/><path class="box" d="M255.26,138.38V132.12M255.21,138.38V132.12H255.26V138.38ZM255.21,135.25H255.21M255.26,135.25H255.26M255.21,136.82V133.68M255.26,136.82V133.68" style="vector-effect: none; stroke-width: 0.5px; stroke: rgb(0, 204, 150); stroke-opacity: 1; fill: rgb(0, 204, 150); fill-opacity: 0.5;"/><path class="box" d="M270.59,48.88V42.62M270.59,48.88V42.62H270.59V48.88ZM270.59,45.75H270.59M270.59,45.75H270.59M270.59,47.32V44.18M270.59,47.32V44.18" style="vector-effect: none; stroke-width: 0.5px; stroke: rgb(0, 204, 150); stroke-opacity: 1; fill: rgb(0, 204, 150); fill-opacity: 0.5;"/><g class="points"/><g class="points"><path class="point" transform="translate(396.87,224.75)" d="M1,1L-1,-1M1,-1L-1,1" style="opacity: 1; stroke-width: 0.5px; fill: rgb(0, 204, 150); fill-opacity: 1; stroke: rgb(68, 68, 68); stroke-opacity: 1;"/><path class="point" transform="translate(408.73,224.75)" d="M1,1L-1,-1M1,-1L-1,1" style="opacity: 1; stroke-width: 0.5px; fill: rgb(0, 204, 150); fill-opacity: 1; stroke: rgb(68, 68, 68); stroke-opacity: 1;"/></g><g class="points"><path class="point" transform="translate(254.46,135.25)" d="M1,1L-1,-1M1,-1L-1,1" style="opacity: 1; stroke-width: 0.5px; fill: rgb(0, 204, 150); fill-opacity: 1; stroke: rgb(68, 68, 68); stroke-opacity: 1;"/><path class="point" transform="translate(254.51,135.25)" d="M1,1L-1,-1M1,-1L-1,1" style="opacity: 1; stroke-width: 0.5px; fill: rgb(0, 204, 150); fill-opacity: 1; stroke: rgb(68, 68, 68); stroke-opacity: 1;"/><path class="point" transform="translate(256.01,135.25)" d="M1,1L-1,-1M1,-1L-1,1" style="opacity: 1; stroke-width: 0.5px; fill: rgb(0, 204, 150); fill-opacity: 1; stroke: rgb(68, 68, 68); stroke-opacity: 1;"/><path class="point" transform="translate(256.01,135.25)" d="M1,1L-1,-1M1,-1L-1,1" style="opacity: 1; stroke-width: 0.5px; fill: rgb(0, 204, 150); fill-opacity: 1; stroke: rgb(68, 68, 68); stroke-opacity: 1;"/></g><g class="points"><path class="point" transform="translate(270.16,45.75)" d="M1,1L-1,-1M1,-1L-1,1" style="opacity: 1; stroke-width: 0.5px; fill: rgb(0, 204, 150); fill-opacity: 1; stroke: rgb(68, 68, 68); stroke-opacity: 1;"/><path class="point" transform="translate(270.16,45.75)" d="M1,1L-1,-1M1,-1L-1,1" style="opacity: 1; stroke-width: 0.5px; fill: rgb(0, 204, 150); fill-opacity: 1; stroke: rgb(68, 68, 68); stroke-opacity: 1;"/></g></g><g class="trace boxes" style="opacity: 1;"><path class="box" d="M110.1,304.85V298.59M110.1,304.85V298.59H110.1V304.85ZM110.1,301.72H110.1M110.1,301.72H110.1M110.1,303.29V300.15M110.1,303.29V300.15" style="vector-effect: none; stroke-width: 0.5px; stroke: rgb(171, 99, 250); stroke-opacity: 1; fill: rgb(171, 99, 250); fill-opacity: 0.5;"/><path class="box" d="M35.15,215.35V209.09M35.15,215.35V209.09H35.15V215.35ZM35.15,212.22H35.15M35.15,212.22H35.15M35.15,213.79V210.65M35.15,213.79V210.65" style="vector-effect: none; stroke-width: 0.5px; stroke: rgb(171, 99, 250); stroke-opacity: 1; fill: rgb(171, 99, 250); fill-opacity: 0.5;"/><path class="box" d="M238.56,125.85V119.59M237.82,125.85V119.59H238.97V125.85ZM237.82,122.72H236.77M238.97,122.72H239.8M236.77,124.29V121.15M239.8,124.29V121.15" style="vector-effect: none; stroke-width: 0.5px; stroke: rgb(171, 99, 250); stroke-opacity: 1; fill: rgb(171, 99, 250); fill-opacity: 0.5;"/><path class="box" d="M216.64,36.35V30.09M216.08,36.35V30.09H216.78V36.35ZM216.08,33.22H215.62M216.78,33.22H217.11M215.62,34.79V31.65M217.11,34.79V31.65" style="vector-effect: none; stroke-width: 0.5px; stroke: rgb(171, 99, 250); stroke-opacity: 1; fill: rgb(171, 99, 250); fill-opacity: 0.5;"/><g class="points"/><g class="points"><path class="point" transform="translate(25.05,212.22)" d="M1,1L-1,-1M1,-1L-1,1" style="opacity: 1; stroke-width: 0.5px; fill: rgb(171, 99, 250); fill-opacity: 1; stroke: rgb(68, 68, 68); stroke-opacity: 1;"/><path class="point" transform="translate(44.86,212.22)" d="M1,1L-1,-1M1,-1L-1,1" style="opacity: 1; stroke-width: 0.5px; fill: rgb(171, 99, 250); fill-opacity: 1; stroke: rgb(68, 68, 68); stroke-opacity: 1;"/><path class="point" transform="translate(44.86,212.22)" d="M1,1L-1,-1M1,-1L-1,1" style="opacity: 1; stroke-width: 0.5px; fill: rgb(171, 99, 250); fill-opacity: 1; stroke: rgb(68, 68, 68); stroke-opacity: 1;"/></g><g class="points"/><g class="points"/></g><g class="trace boxes" style="opacity: 1;"><path class="box" d="M471.47,292.32V286.06M466.92,292.32V286.06H475.95V292.32ZM466.92,289.19H466.92M475.95,289.19H475.95M466.92,290.76V287.62M475.95,290.76V287.62" style="vector-effect: none; stroke-width: 0.5px; stroke: rgb(255, 161, 90); stroke-opacity: 1; fill: rgb(255, 161, 90); fill-opacity: 0.5;"/><path class="box" d="M321.2,202.82V196.56M317.92,202.82V196.56H324.44V202.82ZM317.92,199.69H317.92M324.44,199.69H327.63M317.92,201.26V198.12M327.63,201.26V198.12" style="vector-effect: none; stroke-width: 0.5px; stroke: rgb(255, 161, 90); stroke-opacity: 1; fill: rgb(255, 161, 90); fill-opacity: 0.5;"/><path class="box" d="M271.24,113.32V107.06M270.56,113.32V107.06H271.26V113.32ZM270.56,110.19H269.85M271.26,110.19H271.97M269.85,111.76V108.62M271.97,111.76V108.62" style="vector-effect: none; stroke-width: 0.5px; stroke: rgb(255, 161, 90); stroke-opacity: 1; fill: rgb(255, 161, 90); fill-opacity: 0.5;"/><path class="box" d="M264.23,23.82V17.56M264.01,23.82V17.56H264.45V23.82ZM264.01,20.69H264.01M264.45,20.69H264.45M264.01,22.26V19.12M264.45,22.26V19.12" style="vector-effect: none; stroke-width: 0.5px; stroke: rgb(255, 161, 90); stroke-opacity: 1; fill: rgb(255, 161, 90); fill-opacity: 0.5;"/><g class="points"/><g class="points"><path class="point" transform="translate(304.37,199.69)" d="M1,1L-1,-1M1,-1L-1,1" style="opacity: 1; stroke-width: 0.5px; fill: rgb(255, 161, 90); fill-opacity: 1; stroke: rgb(68, 68, 68); stroke-opacity: 1;"/></g><g class="points"/><g class="points"/></g></g></g><g class="overplot"/><path class="xlines-above crisp" d="M0,0" style="fill: none;"/><path class="ylines-above crisp" d="M0,0" style="fill: none;"/><g class="overlines-above"/><g class="xaxislayer-above"><g class="xtick"><text text-anchor="middle" x="0" y="433" transform="translate(184.12,0)" style="font-family: 'Open Sans', verdana, arial, sans-serif; font-size: 12px; fill: rgb(42, 63, 95); fill-opacity: 1; white-space: pre; opacity: 1;">0.5</text></g><g class="xtick"><text text-anchor="middle" x="0" y="433" style="font-family: 'Open Sans', verdana, arial, sans-serif; font-size: 12px; fill: rgb(42, 63, 95); fill-opacity: 1; white-space: pre; opacity: 1;" transform="translate(362.53999999999996,0)">1</text></g><g class="xtick"><text text-anchor="middle" x="0" y="433" style="font-family: 'Open Sans', verdana, arial, sans-serif; font-size: 12px; fill: rgb(42, 63, 95); fill-opacity: 1; white-space: pre; opacity: 1;" transform="translate(466.9,0)">1.5</text></g><g class="xtick"><text text-anchor="middle" x="0" y="433" style="font-family: 'Open Sans', verdana, arial, sans-serif; font-size: 12px; fill: rgb(42, 63, 95); fill-opacity: 1; white-space: pre; opacity: 1;" transform="translate(540.95,0)">2</text></g><g class="xtick"><text text-anchor="middle" x="0" y="433" style="font-family: 'Open Sans', verdana, arial, sans-serif; font-size: 12px; fill: rgb(42, 63, 95); fill-opacity: 1; white-space: pre; opacity: 1;" transform="translate(598.38,0)">2.5</text></g></g><g class="yaxislayer-above"><g class="ytick"><text text-anchor="end" x="109" y="4.199999999999999" transform="translate(0,374.25)" style="font-family: 'Open Sans', verdana, arial, sans-serif; font-size: 12px; fill: rgb(42, 63, 95); fill-opacity: 1; white-space: pre; opacity: 1;">glibc-simple</text></g><g class="ytick"><text text-anchor="end" x="109" y="4.199999999999999" transform="translate(0,284.75)" style="font-family: 'Open Sans', verdana, arial, sans-serif; font-size: 12px; fill: rgb(42, 63, 95); fill-opacity: 1; white-space: pre; opacity: 1;">glibc-thread</text></g><g class="ytick"><text text-anchor="end" x="109" y="4.199999999999999" transform="translate(0,195.25)" style="font-family: 'Open Sans', verdana, arial, sans-serif; font-size: 12px; fill: rgb(42, 63, 95); fill-opacity: 1; white-space: pre; opacity: 1;">gs</text></g><g class="ytick"><text text-anchor="end" x="109" y="4.199999999999999" transform="translate(0,105.75)" style="font-family: 'Open Sans', verdana, arial, sans-serif; font-size: 12px; fill: rgb(42, 63, 95); fill-opacity: 1; white-space: pre; opacity: 1;">lua</text></g></g><g class="overaxes-above"/></g></g><g class="polarlayer"/><g class="smithlayer"/><g class="ternarylayer"/><g class="geolayer"/><g class="funnelarealayer"/><g class="pielayer"/><g class="iciclelayer"/><g class="treemaplayer"/><g class="sunburstlayer"/><g class="glimages"/><defs id="topdefs-3fe342"><g class="clips"/><clipPath id="legend3fe342"><rect width="67" height="124" x="0" y="0"/></clipPath></defs><g class="layer-above"><g class="imagelayer"/><g class="shapelayer"/></g><g class="infolayer"><g class="legend" pointer-events="all" transform="translate(621.02,60)"><rect class="bg" shape-rendering="crispEdges" width="67" height="124" x="0" y="0" style="stroke: rgb(68, 68, 68); stroke-opacity: 1; fill: rgb(255, 255, 255); fill-opacity: 1; stroke-width: 0px;"/><g class="scrollbox" transform="" clip-path="url(#legend3fe342)"><text class="legendtitletext" text-anchor="start" x="2" y="18.2" style="font-family: 'Open Sans', verdana, arial, sans-serif; font-size: 14px; fill: rgb(42, 63, 95); fill-opacity: 1; white-space: pre;">Allocator</text><g class="groups" transform=""><g class="traces" transform="translate(0,32.7)" style="opacity: 1;"><text class="legendtext" text-anchor="start" x="40" y="4.680000000000001" style="font-family: 'Open Sans', verdana, arial, sans-serif; font-size: 12px; fill: rgb(42, 63, 95); fill-opacity: 1; white-space: pre;">fe</text><g class="layers" style="opacity: 1;"><g class="legendfill"/><g class="legendlines"/><g class="legendsymbols"><g class="legendpoints"><path class="legendbox" d="M6,6H-6V-6H6Z" transform="translate(20,0)" style="stroke-width: 0.5px; fill: rgb(99, 110, 250); fill-opacity: 0.5; stroke: rgb(99, 110, 250); stroke-opacity: 1;"/></g></g></g><rect class="legendtoggle" x="0" y="-9.5" width="59.609375" height="19" style="fill: rgb(0, 0, 0); fill-opacity: 0;"/></g></g><g class="groups" transform=""><g class="traces" transform="translate(0,51.7)" style="opacity: 1;"><text class="legendtext" text-anchor="start" x="40" y="4.680000000000001" style="font-family: 'Open Sans', verdana, arial, sans-serif; font-size: 12px; fill: rgb(42, 63, 95); fill-opacity: 1; white-space: pre;">mi</text><g class="layers" style="opacity: 1;"><g class="legendfill"/><g class="legendlines"/><g class="legendsymbols"><g class="legendpoints"><path class="legendbox" d="M6,6H-6V-6H6Z" transform="translate(20,0)" style="stroke-width: 0.5px; fill: rgb(239, 85, 59); fill-opacity: 0.5; stroke: rgb(239, 85, 59); stroke-opacity: 1;"/></g></g></g><rect class="legendtoggle" x="0" y="-9.5" width="59.609375" height="19" style="fill: rgb(0, 0, 0); fill-opacity: 0;"/></g></g><g class="groups" transform=""><g class="traces" transform="translate(0,70.7)" style="opacity: 1;"><text class="legendtext" text-anchor="start" x="40" y="4.680000000000001" style="font-family: 'Open Sans', verdana, arial, sans-serif; font-size: 12px; fill: rgb(42, 63, 95); fill-opacity: 1; white-space: pre;">rp</text><g class="layers" style="opacity: 1;"><g class="legendfill"/><g class="legendlines"/><g class="legendsymbols"><g class="legendpoints"><path class="legendbox" d="M6,6H-6V-6H6Z" transform="translate(20,0)" style="stroke-width: 0.5px; fill: rgb(0, 204, 150); fill-opacity: 0.5; stroke: rgb(0, 204, 150); stroke-opacity: 1;"/></g></g></g><rect class="legendtoggle" x="0" y="-9.5" width="59.609375" height="19" style="fill: rgb(0, 0, 0); fill-opacity: 0;"/></g></g><g class="groups" transform=""><g class="traces" transform="translate(0,89.7)" style="opacity: 1;"><text class="legendtext" text-anchor="start" x="40" y="4.680000000000001" style="font-family: 'Open Sans', verdana, arial, sans-serif; font-size: 12px; fill: rgb(42, 63, 95); fill-opacity: 1; white-space: pre;">sys</text><g class="layers" style="opacity: 1;"><g class="legendfill"/><g class="legendlines"/><g class="legendsymbols"><g class="legendpoints"><path class="legendbox" d="M6,6H-6V-6H6Z" transform="translate(20,0)" style="stroke-width: 0.5px; fill: rgb(171, 99, 250); fill-opacity: 0.5; stroke: rgb(171, 99, 250); stroke-opacity: 1;"/></g></g></g><rect class="legendtoggle" x="0" y="-9.5" width="59.609375" height="19" style="fill: rgb(0, 0, 0); fill-opacity: 0;"/></g></g><g class="groups" transform=""><g class="traces" transform="translate(0,108.7)" style="opacity: 1;"><text class="legendtext" text-anchor="start" x="40" y="4.680000000000001" style="font-family: 'Open Sans', verdana, arial, sans-serif; font-size: 12px; fill: rgb(42, 63, 95); fill-opacity: 1; white-space: pre;">tc</text><g class="layers" style="opacity: 1;"><g class="legendfill"/><g class="legendlines"/><g class="legendsymbols"><g class="legendpoints"><path class="legendbox" d="M6,6H-6V-6H6Z" transform="translate(20,0)" style="stroke-width: 0.5px; fill: rgb(255, 161, 90); fill-opacity: 0.5; stroke: rgb(255, 161, 90); stroke-opacity: 1;"/></g></g></g><rect class="legendtoggle" x="0" y="-9.5" width="59.609375" height="19" style="fill: rgb(0, 0, 0); fill-opacity: 0;"/></g></g></g><rect class="scrollbar" rx="20" ry="3" width="0" height="0" x="0" y="0" style="fill: rgb(128, 139, 164); fill-opacity: 1;"/></g><g class="g-gtitle"/><g class="g-xtitle"><text class="xtitle" x="360.5" y="460.3" text-anchor="middle" style="font-family: 'Open Sans', verdana, arial, sans-serif; font-size: 14px; fill: rgb(42, 63, 95); opacity: 1; font-weight: normal; white-space: pre;">Normalised Memory (log(memory/mean memory))</text></g><g class="g-ytitle" transform="translate(1.7060546875,0)"><text class="ytitle" transform="rotate(-90,12.293750000000003,240)" x="12.293750000000003" y="240" text-anchor="middle" style="font-family: 'Open Sans', verdana, arial, sans-serif; font-size: 14px; fill: rgb(42, 63, 95); opacity: 1; font-weight: normal; white-space: pre;">Benchmark</text></g></g></svg>